# Blender v2.82 (sub 7) OBJ File: ''
# www.blender.org
mtllib bomb_range_0.5.mtl
o mid1_Circle.008
v -5.596889 0.000000 -1.592379
v 0.000000 0.000000 0.000000
v -5.324250 0.000000 -2.491148
v -1.610314 0.000001 -5.499195
v -2.588381 0.000001 -5.190927
v 5.541445 -0.000000 0.696175
v 5.544087 0.000000 -0.000678
v -4.222009 -0.000001 4.116726
v -3.495990 -0.000001 4.712555
v -5.685952 0.000000 -0.614196
v -5.621303 0.000000 -0.002795
v -5.686096 -0.000000 0.629297
v -5.596889 -0.000000 1.592379
v -4.881511 0.000001 -3.319458
v -3.495990 0.000001 -4.712556
v -4.222009 0.000001 -4.116726
v 2.543537 0.000001 -5.204613
v 1.586594 0.000001 -5.499194
v 0.651905 0.000001 -5.591253
v -0.675626 0.000001 -5.591253
v 5.541445 0.000000 -0.696176
v 5.444133 0.000000 -1.664581
v 5.171495 0.000000 -2.563349
v 4.728755 0.000001 -3.391660
v 4.097866 0.000001 -4.166041
v 3.371846 0.000001 -4.761871
v 3.371846 -0.000001 4.761870
v 4.097866 -0.000001 4.166040
v 4.728755 -0.000001 3.391659
v 5.171495 -0.000000 2.563349
v 5.449387 -0.000000 1.630863
v -2.588381 -0.000001 5.190926
v -1.610314 -0.000001 5.499194
v -0.675626 -0.000001 5.591253
v 0.651905 -0.000001 5.591253
v 1.615681 -0.000001 5.488222
v 2.514450 -0.000001 5.215583
v -5.324250 -0.000000 2.491147
v -4.881511 -0.000001 3.319457
vn 0.0000 1.0000 0.0000
usemtl Default_OBJ
s 1
f 1//1 2//1 3//1
f 4//1 5//1 2//1
f 6//1 7//1 2//1
f 8//1 9//1 2//1
f 1//1 10//1 2//1
f 10//1 11//1 2//1
f 11//1 12//1 2//1
f 12//1 13//1 2//1
f 2//1 14//1 3//1
f 5//1 15//1 2//1
f 15//1 16//1 2//1
f 16//1 14//1 2//1
f 2//1 17//1 18//1
f 18//1 19//1 2//1
f 19//1 20//1 2//1
f 20//1 4//1 2//1
f 7//1 21//1 2//1
f 21//1 22//1 2//1
f 22//1 23//1 2//1
f 23//1 24//1 2//1
f 24//1 25//1 2//1
f 25//1 26//1 2//1
f 26//1 17//1 2//1
f 2//1 27//1 28//1
f 28//1 29//1 2//1
f 29//1 30//1 2//1
f 30//1 31//1 2//1
f 31//1 6//1 2//1
f 9//1 32//1 2//1
f 32//1 33//1 2//1
f 33//1 34//1 2//1
f 34//1 35//1 2//1
f 35//1 36//1 2//1
f 36//1 37//1 2//1
f 37//1 27//1 2//1
f 2//1 13//1 38//1
f 38//1 39//1 2//1
f 39//1 8//1 2//1
