# Blender v2.82 (sub 7) OBJ File: ''
# www.blender.org
mtllib small_front5j.mtl
o aforward_Circle.016
v 1.610926 0.000010 -30.050735
v -1.610926 0.000010 -30.050741
v 0.000000 0.000000 -0.000016
v -7.107122 0.000010 -29.509411
v -12.392100 0.000009 -27.906229
v -17.262766 0.000009 -25.302805
v -19.868355 0.000007 -23.164455
v 19.868355 0.000007 -23.164455
v 17.262733 0.000009 -25.302822
v 12.392061 0.000009 -27.906242
v 7.107078 0.000010 -29.509417
v 0.991461 0.080006 -18.495039
v -0.991461 0.080006 -18.495041
v 0.000000 0.080000 -0.000010
v -4.374152 0.080006 -18.161873
v -7.626847 0.080006 -17.175180
v -10.624549 0.080006 -15.572874
v -12.228186 0.080004 -14.256805
v 12.228185 0.080004 -14.256805
v 10.624529 0.080006 -15.572885
v 7.626823 0.080006 -17.175188
v 4.374125 0.080006 -18.161877
v 0.991461 0.120004 -12.715340
v -0.991461 0.120004 -12.715341
v 0.000000 0.120000 -0.000010
v -3.246588 0.120004 -12.493231
v -5.415052 0.120004 -11.835433
v -7.413519 0.120004 -10.767231
v -8.482610 0.120004 -9.889852
v 8.482609 0.120004 -9.889852
v 7.413507 0.120004 -10.767238
v 5.415038 0.120004 -11.835439
v 3.246570 0.120004 -12.493231
v -3.203257 0.160002 -6.495687
v -4.202490 0.160002 -5.961586
v 0.000000 0.160000 -0.000010
v -4.737033 0.160002 -5.522897
v 4.737031 0.160002 -5.522900
v 4.202483 0.160002 -5.961589
v 3.203248 0.160002 -6.495690
v 2.119015 0.160002 -6.824586
v 0.991460 0.160002 -6.935640
v -0.991461 0.160002 -6.935640
v -2.119025 0.160002 -6.824584
v 1.301144 0.040008 -24.271965
v -1.301144 0.040008 -24.271969
v 0.000000 0.040000 -0.000013
v -5.740419 0.040008 -23.834736
v -10.009093 0.040008 -22.539848
v -13.943128 0.040007 -20.437063
v -16.047661 0.040006 -18.709919
v 16.047659 0.040006 -18.709919
v 13.943102 0.040007 -20.437077
v 10.009062 0.040008 -22.539858
v 5.740384 0.040008 -23.834742
vt 0.469722 0.011076
vt 0.469731 0.011076
vt 0.470377 0.437125
vt 0.469748 0.011072
vt 0.469764 0.011063
vt 0.469779 0.011049
vt 0.469787 0.011037
vt 0.469665 0.011044
vt 0.469673 0.011055
vt 0.469688 0.011067
vt 0.469705 0.011074
vt 0.469722 0.010435
vt 0.469731 0.010435
vt 0.470377 0.861033
vt 0.469748 0.010430
vt 0.469764 0.010418
vt 0.469779 0.010399
vt 0.469787 0.010384
vt 0.469665 0.010393
vt 0.469673 0.010407
vt 0.469688 0.010424
vt 0.469705 0.010433
vt 0.469697 0.010434
vt 0.469749 0.010434
vt 0.470372 0.860636
vt 0.469807 0.010430
vt 0.469864 0.010420
vt 0.469915 0.010403
vt 0.469943 0.010390
vt 0.469501 0.010392
vt 0.469529 0.010405
vt 0.469581 0.010421
vt 0.469638 0.010431
vt 0.469799 0.010420
vt 0.469826 0.010405
vt 0.470369 0.860751
vt 0.469840 0.010393
vt 0.469593 0.010390
vt 0.469607 0.010402
vt 0.469633 0.010418
vt 0.469661 0.004890
vt 0.469690 0.010431
vt 0.469742 0.010431
vt 0.469771 0.010429
vt 0.469722 0.010425
vt 0.469731 0.010425
vt 0.470377 0.580504
vt 0.469748 0.010421
vt 0.469764 0.010411
vt 0.469779 0.010396
vt 0.469787 0.010384
vt 0.469665 0.010391
vt 0.469673 0.010402
vt 0.469688 0.010416
vt 0.469705 0.010423
vn -0.0000 1.0000 0.0000
usemtl Default_OBJ
s 1
f 1/1/1 2/2/1 3/3/1
f 2/2/1 4/4/1 3/3/1
f 4/4/1 5/5/1 3/3/1
f 5/5/1 6/6/1 3/3/1
f 6/6/1 7/7/1 3/3/1
f 3/3/1 8/8/1 9/9/1
f 9/9/1 10/10/1 3/3/1
f 10/10/1 11/11/1 3/3/1
f 11/11/1 1/1/1 3/3/1
f 12/12/1 13/13/1 14/14/1
f 13/13/1 15/15/1 14/14/1
f 15/15/1 16/16/1 14/14/1
f 16/16/1 17/17/1 14/14/1
f 17/17/1 18/18/1 14/14/1
f 14/14/1 19/19/1 20/20/1
f 20/20/1 21/21/1 14/14/1
f 21/21/1 22/22/1 14/14/1
f 22/22/1 12/12/1 14/14/1
f 23/23/1 24/24/1 25/25/1
f 24/24/1 26/26/1 25/25/1
f 26/26/1 27/27/1 25/25/1
f 27/27/1 28/28/1 25/25/1
f 28/28/1 29/29/1 25/25/1
f 25/25/1 30/30/1 31/31/1
f 31/31/1 32/32/1 25/25/1
f 32/32/1 33/33/1 25/25/1
f 33/33/1 23/23/1 25/25/1
f 34/34/1 35/35/1 36/36/1
f 35/35/1 37/37/1 36/36/1
f 36/36/1 38/38/1 39/39/1
f 39/39/1 40/40/1 36/36/1
f 40/40/1 41/41/1 36/36/1
f 41/41/1 42/42/1 36/36/1
f 42/42/1 43/43/1 36/36/1
f 43/43/1 44/44/1 36/36/1
f 44/44/1 34/34/1 36/36/1
f 45/45/1 46/46/1 47/47/1
f 46/46/1 48/48/1 47/47/1
f 48/48/1 49/49/1 47/47/1
f 49/49/1 50/50/1 47/47/1
f 50/50/1 51/51/1 47/47/1
f 47/47/1 52/52/1 53/53/1
f 53/53/1 54/54/1 47/47/1
f 54/54/1 55/55/1 47/47/1
f 55/55/1 45/45/1 47/47/1
o bullseye.002_Plane.004
v 0.417953 -0.040000 -0.639126
v -0.417953 -0.039980 -30.051918
v -0.417953 -0.040000 -0.639126
v 0.417953 -0.039980 -30.051918
vt 0.009968 0.982761
vt 0.020519 0.972210
vt 0.020519 0.982761
vt 0.009968 0.972210
vn 0.0000 1.0000 0.0000
usemtl Default_OBJ
s 1
f 56/56/2 57/57/2 58/58/2
f 56/56/2 59/59/2 57/57/2
