# Blender v2.82 (sub 7) OBJ File: ''
# www.blender.org
mtllib small_range_md.mtl
o R1_Circle.001
v 6.944685 0.015026 0.001949
v 0.000000 0.000000 0.000000
v -4.387922 0.000001 -5.947518
v -4.714294 0.000001 -5.710392
v 6.935638 0.000000 -1.155940
v -5.023328 0.000001 -5.451080
v -5.313522 0.000001 -5.170842
v -5.583460 0.000001 -4.871044
v -5.831830 0.000001 -4.553144
v -6.057416 0.000001 -4.218696
v -6.259122 0.000001 -3.869324
v -6.435966 0.000001 -3.506734
v -6.587090 0.000001 -3.132690
v -6.711750 0.000000 -2.749018
v -6.809344 0.000000 -2.357584
v -6.879396 0.000000 -1.960294
v -6.921564 0.000000 -1.559086
v -6.935638 0.000000 -1.155940
v -6.901002 0.016079 0.008413
v 5.451080 0.000001 -5.023328
v 5.170842 0.000001 -5.313522
v 4.871044 0.000001 -5.583460
v 4.553144 0.000001 -5.831828
v 4.218696 0.000001 -6.057416
v 3.869324 0.000003 -6.259122
v 3.506736 0.000003 -6.435968
v 3.132692 0.000003 -6.587090
v 2.749018 0.000003 -6.711750
v 2.357584 0.000003 -6.809344
v 1.960294 0.000003 -6.879396
v 1.559086 0.000003 -6.921564
v 1.155940 0.000003 -6.935640
v -1.155940 0.000003 -6.935640
v -1.357664 0.000003 -6.932124
v -1.760100 0.000003 -6.903976
v -2.159590 0.000003 -6.847830
v -2.554194 0.000003 -6.763954
v -2.941982 0.000003 -6.652756
v -3.321070 0.000003 -6.514778
v -3.689610 0.000003 -6.350692
v -4.045806 0.000003 -6.161298
v 6.932124 0.000000 -1.357664
v 6.903976 0.000000 -1.760100
v 6.847830 0.000000 -2.159590
v 6.763954 0.000000 -2.554192
v 6.652754 0.000000 -2.941982
v 6.514778 0.000001 -3.321070
v 6.350692 0.000001 -3.689610
v 6.161298 0.000001 -4.045806
v 5.947516 0.000001 -4.387922
v 5.710392 0.000001 -4.714294
vt 0.524606 0.007820
vt 0.524606 0.007818
vt 0.524608 0.864196
vt 0.524608 0.007881
vt 0.524607 0.007881
vt 0.524606 0.007816
vt 0.524607 0.007815
vt 0.524607 0.007813
vt 0.524607 0.007812
vt 0.524607 0.007811
vt 0.524607 0.007810
vt 0.524607 0.007809
vt 0.524607 0.007808
vt 0.524607 0.007807
vt 0.524607 0.007807
vt 0.524607 0.007806
vt 0.524607 0.007806
vt 0.524607 0.007806
vt 0.524608 0.007806
vt 0.524607 0.007873
vt 0.524606 0.007871
vt 0.524606 0.007870
vt 0.524606 0.007868
vt 0.524606 0.007866
vt 0.524606 0.007864
vt 0.524606 0.007862
vt 0.524606 0.007860
vt 0.524606 0.007858
vt 0.524606 0.007856
vt 0.524606 0.007854
vt 0.524606 0.007852
vt 0.524606 0.007850
vt 0.524606 0.007837
vt 0.524606 0.007836
vt 0.524606 0.007834
vt 0.524606 0.007832
vt 0.524606 0.007830
vt 0.524606 0.007827
vt 0.524606 0.007825
vt 0.524606 0.007823
vt 0.524606 0.007821
vt 0.524607 0.007881
vt 0.524607 0.007881
vt 0.524607 0.007880
vt 0.524607 0.007880
vt 0.524607 0.007879
vt 0.524607 0.007879
vt 0.524607 0.007878
vt 0.524607 0.007877
vt 0.524607 0.007876
vt 0.524607 0.007874
vn -0.0000 1.0000 0.0000
vn 0.0000 1.0000 -0.0014
vn -0.0022 0.9999 -0.0130
vn -0.0010 1.0000 -0.0058
vn 0.0010 1.0000 -0.0062
vn 0.0023 0.9999 -0.0139
usemtl Default_OBJ
s 1
f 3/1/1 4/2/1 2/3/2
f 2/3/2 1/4/3 5/5/4
f 2/3/2 4/2/1 6/6/1
f 6/6/1 7/7/1 2/3/2
f 7/7/1 8/8/1 2/3/2
f 8/8/1 9/9/1 2/3/2
f 9/9/1 10/10/1 2/3/2
f 10/10/1 11/11/1 2/3/2
f 11/11/1 12/12/1 2/3/2
f 12/12/1 13/13/1 2/3/2
f 13/13/1 14/14/1 2/3/2
f 14/14/1 15/15/1 2/3/2
f 15/15/1 16/16/1 2/3/2
f 16/16/1 17/17/1 2/3/2
f 17/17/1 18/18/5 2/3/2
f 18/18/5 19/19/6 2/3/2
f 2/3/2 20/20/1 21/21/1
f 21/21/1 22/22/1 2/3/2
f 22/22/1 23/23/1 2/3/2
f 23/23/1 24/24/1 2/3/2
f 24/24/1 25/25/1 2/3/2
f 25/25/1 26/26/1 2/3/2
f 26/26/1 27/27/1 2/3/2
f 27/27/1 28/28/1 2/3/2
f 28/28/1 29/29/1 2/3/2
f 29/29/1 30/30/1 2/3/2
f 30/30/1 31/31/1 2/3/2
f 31/31/1 32/32/1 2/3/2
f 32/32/1 33/33/1 2/3/2
f 33/33/1 34/34/1 2/3/2
f 34/34/1 35/35/1 2/3/2
f 35/35/1 36/36/1 2/3/2
f 36/36/1 37/37/1 2/3/2
f 37/37/1 38/38/1 2/3/2
f 38/38/1 39/39/1 2/3/2
f 39/39/1 40/40/1 2/3/2
f 40/40/1 41/41/1 2/3/2
f 41/41/1 3/1/1 2/3/2
f 5/5/4 42/42/1 2/3/2
f 42/42/1 43/43/1 2/3/2
f 43/43/1 44/44/1 2/3/2
f 44/44/1 45/45/1 2/3/2
f 45/45/1 46/46/1 2/3/2
f 46/46/1 47/47/1 2/3/2
f 47/47/1 48/48/1 2/3/2
f 48/48/1 49/49/1 2/3/2
f 49/49/1 50/50/1 2/3/2
f 50/50/1 51/51/1 2/3/2
f 51/51/1 20/20/1 2/3/2
