# Blender v2.82 (sub 7) OBJ File: 'Front Arc1.blend'
# www.blender.org
mtllib small_range_4.mtl
o R2_Circle.001
v 23.616848 0.000002 -7.544822
v 23.192318 0.000003 -9.025325
v 0.000000 0.000000 0.000000
v 7.544822 -0.000008 23.616848
v 9.025325 -0.000008 23.192316
v -24.272312 0.000000 -2.206574
v -24.272312 -0.000000 2.206576
v 2.206574 0.000008 -24.272310
v -2.206576 0.000008 -24.272312
v 17.534666 0.000006 -18.079391
v 16.390095 0.000006 -19.109962
v 10.472607 -0.000008 22.665543
v 11.879620 -0.000007 22.039097
v 13.239504 -0.000007 21.316027
v 14.545637 -0.000006 20.499859
v 15.791659 -0.000006 19.594564
v 16.971493 -0.000006 18.604561
v 18.079391 -0.000006 17.534666
v 19.109962 -0.000006 16.390095
v 20.058182 -0.000005 15.176421
v 20.919426 -0.000004 13.899563
v 21.689505 -0.000004 12.565733
v 22.364662 -0.000004 11.181439
v 22.941614 -0.000003 9.753416
v 23.417549 -0.000002 8.288627
v 23.790140 -0.000002 6.794207
v 24.057583 -0.000002 5.277437
v 24.218571 -0.000002 3.745705
v 24.272312 -0.000000 2.206574
v 24.272312 0.000000 -2.206574
v 24.258886 0.000001 -2.976716
v 24.151428 0.000002 -4.513132
v 23.937073 0.000002 -6.038311
v -20.499857 -0.000004 14.545639
v -19.594564 -0.000005 15.791661
v -18.604559 -0.000006 16.971493
v -17.534664 -0.000006 18.079393
v -16.390093 -0.000006 19.109962
v -15.176419 -0.000006 20.058182
v -13.899563 -0.000007 20.919428
v -12.565733 -0.000007 21.689505
v -11.181436 -0.000007 22.364664
v -9.753416 -0.000008 22.941614
v -8.288625 -0.000008 23.417547
v -6.794207 -0.000008 23.790140
v -5.277435 -0.000008 24.057581
v -3.745703 -0.000008 24.218569
v -2.206572 -0.000008 24.272312
v 2.206574 -0.000008 24.272312
v 2.976716 -0.000008 24.258886
v 4.513132 -0.000008 24.151428
v 6.038311 -0.000008 23.937073
v -24.258886 -0.000001 2.976718
v -24.151428 -0.000002 4.513134
v -23.937073 -0.000002 6.038313
v -23.616848 -0.000002 7.544824
v -23.192318 -0.000003 9.025325
v -22.665545 -0.000004 10.472609
v -22.039097 -0.000004 11.879622
v -21.316025 -0.000004 13.239507
v -21.689505 0.000004 -12.565733
v -22.364666 0.000004 -11.181437
v -22.941616 0.000003 -9.753416
v -23.417549 0.000002 -8.288627
v -23.790140 0.000002 -6.794207
v -24.057581 0.000002 -5.277437
v -24.218569 0.000002 -3.745705
v -2.976718 0.000008 -24.258886
v -4.513134 0.000008 -24.151428
v -6.038313 0.000008 -23.937073
v -7.544822 0.000008 -23.616848
v -9.025325 0.000008 -23.192320
v -10.472609 0.000008 -22.665545
v -11.879620 0.000007 -22.039097
v -13.239504 0.000007 -21.316027
v -14.545639 0.000006 -20.499859
v -15.791659 0.000006 -19.594564
v -16.971493 0.000006 -18.604561
v -18.079391 0.000006 -17.534666
v -19.109961 0.000006 -16.390095
v -20.058182 0.000005 -15.176421
v -20.919428 0.000004 -13.899563
v 15.176421 0.000006 -20.058180
v 13.899563 0.000007 -20.919426
v 12.565735 0.000007 -21.689505
v 11.181439 0.000007 -22.364664
v 9.753416 0.000008 -22.941616
v 8.288629 0.000008 -23.417551
v 6.794209 0.000008 -23.790140
v 5.277437 0.000008 -24.057583
v 3.745707 0.000008 -24.218571
v 22.665543 0.000004 -10.472607
v 22.039097 0.000004 -11.879618
v 21.316027 0.000004 -13.239504
v 20.499859 0.000004 -14.545637
v 19.594564 0.000005 -15.791659
v 18.604561 0.000006 -16.971493
vt 0.497539 0.022571
vt 0.497539 0.022564
vt 0.495078 0.876500
vt 0.497539 0.022725
vt 0.497539 0.022722
vt 0.497539 0.022597
vt 0.497539 0.022619
vt 0.497539 0.022489
vt 0.497539 0.022489
vt 0.497539 0.022519
vt 0.497539 0.022514
vt 0.497539 0.022720
vt 0.497539 0.022717
vt 0.497539 0.022713
vt 0.497539 0.022709
vt 0.497539 0.022705
vt 0.497539 0.022700
vt 0.497539 0.022695
vt 0.497539 0.022689
vt 0.497539 0.022683
vt 0.497539 0.022677
vt 0.497539 0.022670
vt 0.497539 0.022663
vt 0.497539 0.022656
vt 0.497539 0.022649
vt 0.497539 0.022642
vt 0.497539 0.022634
vt 0.497539 0.022627
vt 0.497539 0.022619
vt 0.497539 0.022597
vt 0.497539 0.022593
vt 0.497539 0.022586
vt 0.497539 0.022578
vt 0.497539 0.022680
vt 0.497539 0.022686
vt 0.497539 0.022692
vt 0.497539 0.022697
vt 0.497539 0.022702
vt 0.497539 0.022707
vt 0.497539 0.022711
vt 0.497539 0.022715
vt 0.497539 0.022718
vt 0.497539 0.022721
vt 0.497539 0.022724
vt 0.497539 0.022725
vt 0.497539 0.022727
vt 0.497539 0.022727
vt 0.497539 0.022728
vt 0.497539 0.022728
vt 0.497539 0.022728
vt 0.497539 0.022727
vt 0.497539 0.022726
vt 0.497539 0.022623
vt 0.497539 0.022630
vt 0.497539 0.022638
vt 0.497539 0.022645
vt 0.497539 0.022653
vt 0.497539 0.022660
vt 0.497539 0.022667
vt 0.497539 0.022673
vt 0.497539 0.022546
vt 0.497539 0.022553
vt 0.497539 0.022560
vt 0.497539 0.022567
vt 0.497539 0.022575
vt 0.497539 0.022582
vt 0.497539 0.022590
vt 0.497539 0.022489
vt 0.497539 0.022489
vt 0.497539 0.022490
vt 0.497539 0.022492
vt 0.497539 0.022494
vt 0.497539 0.022496
vt 0.497539 0.022500
vt 0.497539 0.022503
vt 0.497539 0.022507
vt 0.497539 0.022512
vt 0.497539 0.022516
vt 0.497539 0.022522
vt 0.497539 0.022527
vt 0.497539 0.022533
vt 0.497539 0.022540
vt 0.497539 0.022509
vt 0.497539 0.022505
vt 0.497539 0.022501
vt 0.497539 0.022498
vt 0.497539 0.022495
vt 0.497539 0.022493
vt 0.497539 0.022491
vt 0.497539 0.022490
vt 0.497539 0.022489
vt 0.497539 0.022557
vt 0.497539 0.022550
vt 0.497539 0.022543
vt 0.497539 0.022536
vt 0.497539 0.022530
vt 0.497539 0.022525
vn 0.0000 1.0000 0.0000
usemtl Default_OBJ.002
s 1
f 1/1/1 2/2/1 3/3/1
f 4/4/1 5/5/1 3/3/1
f 6/6/1 7/7/1 3/3/1
f 8/8/1 9/9/1 3/3/1
f 10/10/1 11/11/1 3/3/1
f 3/3/1 5/5/1 12/12/1
f 12/12/1 13/13/1 3/3/1
f 13/13/1 14/14/1 3/3/1
f 14/14/1 15/15/1 3/3/1
f 15/15/1 16/16/1 3/3/1
f 16/16/1 17/17/1 3/3/1
f 17/17/1 18/18/1 3/3/1
f 18/18/1 19/19/1 3/3/1
f 19/19/1 20/20/1 3/3/1
f 20/20/1 21/21/1 3/3/1
f 21/21/1 22/22/1 3/3/1
f 22/22/1 23/23/1 3/3/1
f 23/23/1 24/24/1 3/3/1
f 24/24/1 25/25/1 3/3/1
f 25/25/1 26/26/1 3/3/1
f 26/26/1 27/27/1 3/3/1
f 27/27/1 28/28/1 3/3/1
f 28/28/1 29/29/1 3/3/1
f 29/29/1 30/30/1 3/3/1
f 30/30/1 31/31/1 3/3/1
f 31/31/1 32/32/1 3/3/1
f 32/32/1 33/33/1 3/3/1
f 33/33/1 1/1/1 3/3/1
f 3/3/1 34/34/1 35/35/1
f 35/35/1 36/36/1 3/3/1
f 36/36/1 37/37/1 3/3/1
f 37/37/1 38/38/1 3/3/1
f 38/38/1 39/39/1 3/3/1
f 39/39/1 40/40/1 3/3/1
f 40/40/1 41/41/1 3/3/1
f 41/41/1 42/42/1 3/3/1
f 42/42/1 43/43/1 3/3/1
f 43/43/1 44/44/1 3/3/1
f 44/44/1 45/45/1 3/3/1
f 45/45/1 46/46/1 3/3/1
f 46/46/1 47/47/1 3/3/1
f 47/47/1 48/48/1 3/3/1
f 48/48/1 49/49/1 3/3/1
f 49/49/1 50/50/1 3/3/1
f 50/50/1 51/51/1 3/3/1
f 51/51/1 52/52/1 3/3/1
f 52/52/1 4/4/1 3/3/1
f 7/7/1 53/53/1 3/3/1
f 53/53/1 54/54/1 3/3/1
f 54/54/1 55/55/1 3/3/1
f 55/55/1 56/56/1 3/3/1
f 56/56/1 57/57/1 3/3/1
f 57/57/1 58/58/1 3/3/1
f 58/58/1 59/59/1 3/3/1
f 59/59/1 60/60/1 3/3/1
f 60/60/1 34/34/1 3/3/1
f 3/3/1 61/61/1 62/62/1
f 62/62/1 63/63/1 3/3/1
f 63/63/1 64/64/1 3/3/1
f 64/64/1 65/65/1 3/3/1
f 65/65/1 66/66/1 3/3/1
f 66/66/1 67/67/1 3/3/1
f 67/67/1 6/6/1 3/3/1
f 9/9/1 68/68/1 3/3/1
f 68/68/1 69/69/1 3/3/1
f 69/69/1 70/70/1 3/3/1
f 70/70/1 71/71/1 3/3/1
f 71/71/1 72/72/1 3/3/1
f 72/72/1 73/73/1 3/3/1
f 73/73/1 74/74/1 3/3/1
f 74/74/1 75/75/1 3/3/1
f 75/75/1 76/76/1 3/3/1
f 76/76/1 77/77/1 3/3/1
f 77/77/1 78/78/1 3/3/1
f 78/78/1 79/79/1 3/3/1
f 79/79/1 80/80/1 3/3/1
f 80/80/1 81/81/1 3/3/1
f 81/81/1 82/82/1 3/3/1
f 82/82/1 61/61/1 3/3/1
f 3/3/1 11/11/1 83/83/1
f 83/83/1 84/84/1 3/3/1
f 84/84/1 85/85/1 3/3/1
f 85/85/1 86/86/1 3/3/1
f 86/86/1 87/87/1 3/3/1
f 87/87/1 88/88/1 3/3/1
f 88/88/1 89/89/1 3/3/1
f 89/89/1 90/90/1 3/3/1
f 90/90/1 91/91/1 3/3/1
f 91/91/1 8/8/1 3/3/1
f 3/3/1 2/2/1 92/92/1
f 92/92/1 93/93/1 3/3/1
f 93/93/1 94/94/1 3/3/1
f 94/94/1 95/95/1 3/3/1
f 95/95/1 96/96/1 3/3/1
f 96/96/1 97/97/1 3/3/1
f 97/97/1 10/10/1 3/3/1
