# Blender v2.82 (sub 7) OBJ File: ''
# www.blender.org
mtllib small_range_12.mtl
o R1_Circle.014
v 3.460782 -0.000000 0.779543
v 3.467819 -0.000000 0.577970
v 0.000000 0.000000 0.000000
v -0.577970 -0.000001 3.467819
v 0.577970 -0.000001 3.467819
v -3.175345 -0.000000 1.844805
v -3.080649 -0.000000 2.022903
v -2.193961 0.000000 -2.973759
v -2.357147 0.000000 -2.855196
v 3.467819 0.000000 -0.577970
v 0.678832 -0.000001 3.466062
v 0.880050 -0.000001 3.451988
v 1.079795 -0.000001 3.423915
v 1.277097 -0.000001 3.381977
v 1.470991 -0.000001 3.326377
v 1.660535 -0.000001 3.257389
v 1.844805 -0.000001 3.175346
v 2.022903 -0.000001 3.080648
v 2.193961 -0.000000 2.973758
v 2.357147 -0.000000 2.855196
v 2.511664 -0.000000 2.725540
v 2.656761 -0.000000 2.585421
v 2.791730 -0.000000 2.435522
v 2.915914 -0.000000 2.276572
v 3.028708 -0.000000 2.109348
v 3.129561 -0.000000 1.934662
v 3.217983 -0.000000 1.753368
v 3.293545 -0.000000 1.566346
v 3.355875 -0.000000 1.374509
v 3.404672 -0.000000 1.178792
v 3.439698 -0.000000 0.980147
v -2.973758 -0.000000 2.193961
v -2.855196 -0.000000 2.357147
v -2.725540 -0.000000 2.511664
v -2.585421 -0.000000 2.656761
v -2.435522 -0.000000 2.791730
v -2.276572 -0.000000 2.915914
v -2.109348 -0.000000 3.028708
v -1.934662 -0.000001 3.129561
v -1.753367 -0.000001 3.217984
v -1.566345 -0.000001 3.293545
v -1.374509 -0.000001 3.355875
v -1.178792 -0.000001 3.404672
v -0.980147 -0.000001 3.439698
v -0.779543 -0.000001 3.460781
v -2.511664 0.000000 -2.725540
v -2.656761 0.000000 -2.585421
v -2.791730 0.000000 -2.435522
v -2.915915 0.000000 -2.276572
v -3.028708 0.000000 -2.109348
v -3.129561 0.000000 -1.934662
v -3.217983 0.000000 -1.753367
v -3.293545 0.000000 -1.566345
v -3.355875 0.000000 -1.374509
v -3.404672 0.000000 -1.178792
v -3.439698 0.000000 -0.980147
v -3.460782 0.000000 -0.779543
v -3.467819 0.000000 -0.577970
v -3.467819 -0.000000 0.577971
v -3.466062 -0.000000 0.678832
v -3.451988 -0.000000 0.880050
v -3.423915 -0.000000 1.079795
v -3.381977 -0.000000 1.277097
v -3.326377 -0.000000 1.470991
v -3.257389 -0.000000 1.660535
v 2.725540 0.000000 -2.511664
v 2.585421 0.000000 -2.656761
v 2.435522 0.000000 -2.791730
v 2.276572 0.000000 -2.915914
v 2.109348 0.000000 -3.028708
v 1.934662 0.000001 -3.129561
v 1.753368 0.000001 -3.217984
v 1.566346 0.000001 -3.293545
v 1.374509 0.000001 -3.355875
v 1.178792 0.000001 -3.404672
v 0.980147 0.000001 -3.439698
v 0.779543 0.000001 -3.460782
v 0.577970 0.000001 -3.467820
v -0.577970 0.000001 -3.467820
v -0.678832 0.000001 -3.466062
v -0.880050 0.000001 -3.451988
v -1.079795 0.000001 -3.423915
v -1.277097 0.000001 -3.381977
v -1.470991 0.000001 -3.326378
v -1.660535 0.000001 -3.257389
v -1.844805 0.000001 -3.175346
v -2.022903 0.000001 -3.080649
v 3.466062 0.000000 -0.678832
v 3.451988 0.000000 -0.880050
v 3.423915 0.000000 -1.079795
v 3.381977 0.000000 -1.277096
v 3.326377 0.000000 -1.470991
v 3.257389 0.000000 -1.660535
v 3.175346 0.000000 -1.844805
v 3.080649 0.000000 -2.022903
v 2.973758 0.000000 -2.193961
v 2.855196 0.000000 -2.357147
vt 0.524608 0.007881
vt 0.524608 0.007881
vt 0.524608 0.864196
vt 0.524609 0.007837
vt 0.524609 0.007850
vt 0.524609 0.007809
vt 0.524609 0.007810
vt 0.524606 0.007820
vt 0.524606 0.007818
vt 0.524607 0.007881
vt 0.524609 0.007851
vt 0.524609 0.007853
vt 0.524609 0.007855
vt 0.524609 0.007857
vt 0.524609 0.007859
vt 0.524609 0.007861
vt 0.524609 0.007863
vt 0.524609 0.007865
vt 0.524609 0.007867
vt 0.524609 0.007869
vt 0.524609 0.007871
vt 0.524609 0.007872
vt 0.524609 0.007874
vt 0.524609 0.007875
vt 0.524609 0.007876
vt 0.524609 0.007877
vt 0.524609 0.007878
vt 0.524609 0.007879
vt 0.524608 0.007880
vt 0.524608 0.007880
vt 0.524608 0.007881
vt 0.524609 0.007811
vt 0.524609 0.007812
vt 0.524609 0.007814
vt 0.524609 0.007815
vt 0.524609 0.007817
vt 0.524609 0.007819
vt 0.524609 0.007821
vt 0.524609 0.007822
vt 0.524609 0.007824
vt 0.524609 0.007826
vt 0.524609 0.007829
vt 0.524609 0.007831
vt 0.524609 0.007833
vt 0.524609 0.007835
vt 0.524606 0.007816
vt 0.524607 0.007815
vt 0.524607 0.007813
vt 0.524607 0.007812
vt 0.524607 0.007811
vt 0.524607 0.007810
vt 0.524607 0.007809
vt 0.524607 0.007808
vt 0.524607 0.007807
vt 0.524607 0.007807
vt 0.524607 0.007806
vt 0.524607 0.007806
vt 0.524607 0.007806
vt 0.524608 0.007806
vt 0.524608 0.007806
vt 0.524608 0.007806
vt 0.524608 0.007806
vt 0.524608 0.007807
vt 0.524608 0.007807
vt 0.524609 0.007808
vt 0.524607 0.007873
vt 0.524606 0.007871
vt 0.524606 0.007870
vt 0.524606 0.007868
vt 0.524606 0.007866
vt 0.524606 0.007864
vt 0.524606 0.007862
vt 0.524606 0.007860
vt 0.524606 0.007858
vt 0.524606 0.007856
vt 0.524606 0.007854
vt 0.524606 0.007852
vt 0.524606 0.007850
vt 0.524606 0.007837
vt 0.524606 0.007836
vt 0.524606 0.007834
vt 0.524606 0.007832
vt 0.524606 0.007830
vt 0.524606 0.007827
vt 0.524606 0.007825
vt 0.524606 0.007823
vt 0.524606 0.007821
vt 0.524607 0.007881
vt 0.524607 0.007881
vt 0.524607 0.007880
vt 0.524607 0.007880
vt 0.524607 0.007879
vt 0.524607 0.007879
vt 0.524607 0.007878
vt 0.524607 0.007877
vt 0.524607 0.007876
vt 0.524607 0.007874
vn -0.0000 1.0000 0.0000
usemtl Default_OBJ
s 1
f 1/1/1 2/2/1 3/3/1
f 4/4/1 5/5/1 3/3/1
f 6/6/1 7/7/1 3/3/1
f 8/8/1 9/9/1 3/3/1
f 3/3/1 2/2/1 10/10/1
f 5/5/1 11/11/1 3/3/1
f 11/11/1 12/12/1 3/3/1
f 12/12/1 13/13/1 3/3/1
f 13/13/1 14/14/1 3/3/1
f 14/14/1 15/15/1 3/3/1
f 15/15/1 16/16/1 3/3/1
f 16/16/1 17/17/1 3/3/1
f 17/17/1 18/18/1 3/3/1
f 18/18/1 19/19/1 3/3/1
f 19/19/1 20/20/1 3/3/1
f 20/20/1 21/21/1 3/3/1
f 21/21/1 22/22/1 3/3/1
f 22/22/1 23/23/1 3/3/1
f 23/23/1 24/24/1 3/3/1
f 24/24/1 25/25/1 3/3/1
f 25/25/1 26/26/1 3/3/1
f 26/26/1 27/27/1 3/3/1
f 27/27/1 28/28/1 3/3/1
f 28/28/1 29/29/1 3/3/1
f 29/29/1 30/30/1 3/3/1
f 30/30/1 31/31/1 3/3/1
f 31/31/1 1/1/1 3/3/1
f 3/3/1 7/7/1 32/32/1
f 32/32/1 33/33/1 3/3/1
f 33/33/1 34/34/1 3/3/1
f 34/34/1 35/35/1 3/3/1
f 35/35/1 36/36/1 3/3/1
f 36/36/1 37/37/1 3/3/1
f 37/37/1 38/38/1 3/3/1
f 38/38/1 39/39/1 3/3/1
f 39/39/1 40/40/1 3/3/1
f 40/40/1 41/41/1 3/3/1
f 41/41/1 42/42/1 3/3/1
f 42/42/1 43/43/1 3/3/1
f 43/43/1 44/44/1 3/3/1
f 44/44/1 45/45/1 3/3/1
f 45/45/1 4/4/1 3/3/1
f 3/3/1 9/9/1 46/46/1
f 46/46/1 47/47/1 3/3/1
f 47/47/1 48/48/1 3/3/1
f 48/48/1 49/49/1 3/3/1
f 49/49/1 50/50/1 3/3/1
f 50/50/1 51/51/1 3/3/1
f 51/51/1 52/52/1 3/3/1
f 52/52/1 53/53/1 3/3/1
f 53/53/1 54/54/1 3/3/1
f 54/54/1 55/55/1 3/3/1
f 55/55/1 56/56/1 3/3/1
f 56/56/1 57/57/1 3/3/1
f 57/57/1 58/58/1 3/3/1
f 58/58/1 59/59/1 3/3/1
f 59/59/1 60/60/1 3/3/1
f 60/60/1 61/61/1 3/3/1
f 61/61/1 62/62/1 3/3/1
f 62/62/1 63/63/1 3/3/1
f 63/63/1 64/64/1 3/3/1
f 64/64/1 65/65/1 3/3/1
f 65/65/1 6/6/1 3/3/1
f 3/3/1 66/66/1 67/67/1
f 67/67/1 68/68/1 3/3/1
f 68/68/1 69/69/1 3/3/1
f 69/69/1 70/70/1 3/3/1
f 70/70/1 71/71/1 3/3/1
f 71/71/1 72/72/1 3/3/1
f 72/72/1 73/73/1 3/3/1
f 73/73/1 74/74/1 3/3/1
f 74/74/1 75/75/1 3/3/1
f 75/75/1 76/76/1 3/3/1
f 76/76/1 77/77/1 3/3/1
f 77/77/1 78/78/1 3/3/1
f 78/78/1 79/79/1 3/3/1
f 79/79/1 80/80/1 3/3/1
f 80/80/1 81/81/1 3/3/1
f 81/81/1 82/82/1 3/3/1
f 82/82/1 83/83/1 3/3/1
f 83/83/1 84/84/1 3/3/1
f 84/84/1 85/85/1 3/3/1
f 85/85/1 86/86/1 3/3/1
f 86/86/1 87/87/1 3/3/1
f 87/87/1 8/8/1 3/3/1
f 10/10/1 88/88/1 3/3/1
f 88/88/1 89/89/1 3/3/1
f 89/89/1 90/90/1 3/3/1
f 90/90/1 91/91/1 3/3/1
f 91/91/1 92/92/1 3/3/1
f 92/92/1 93/93/1 3/3/1
f 93/93/1 94/94/1 3/3/1
f 94/94/1 95/95/1 3/3/1
f 95/95/1 96/96/1 3/3/1
f 96/96/1 97/97/1 3/3/1
f 97/97/1 66/66/1 3/3/1
