# Blender v2.82 (sub 7) OBJ File: ''
# www.blender.org
mtllib small_range_5.mtl
o R2_Circle.019
v 30.929918 0.000002 -9.881113
v 30.373928 0.000002 -11.820060
v 0.000000 0.000000 0.000000
v 9.881113 -0.000005 30.929918
v 11.820060 -0.000005 30.373926
v -31.788349 0.000000 -2.889850
v -31.788349 -0.000000 2.889853
v 2.889850 0.000005 -31.788347
v -2.889853 0.000005 -31.788349
v 22.964359 0.000004 -23.677761
v 21.465366 0.000004 -25.027454
v 13.715500 -0.000005 29.684036
v 15.558200 -0.000005 28.863609
v 17.339180 -0.000005 27.916637
v 19.049763 -0.000004 26.847736
v 20.681622 -0.000004 25.662115
v 22.226795 -0.000004 24.365551
v 23.677761 -0.000004 22.964359
v 25.027454 -0.000003 21.465366
v 26.269293 -0.000003 19.875872
v 27.397224 -0.000003 18.203629
v 28.405762 -0.000003 16.456772
v 29.289988 -0.000002 14.643826
v 30.045595 -0.000002 12.773608
v 30.668905 -0.000002 10.855240
v 31.156872 -0.000001 8.898066
v 31.507128 -0.000001 6.911620
v 31.717966 -0.000001 4.905580
v 31.788349 -0.000000 2.889850
v 31.788349 0.000000 -2.889850
v 31.770765 0.000001 -3.898470
v 31.630032 0.000001 -5.910645
v 31.349300 0.000001 -7.908102
v -26.847734 -0.000003 19.049765
v -25.662115 -0.000003 20.681625
v -24.365549 -0.000004 22.226795
v -22.964355 -0.000004 23.677765
v -21.465363 -0.000004 25.027454
v -19.875870 -0.000004 26.269293
v -18.203629 -0.000004 27.397228
v -16.456772 -0.000005 28.405762
v -14.643821 -0.000005 29.289989
v -12.773608 -0.000005 30.045595
v -10.855237 -0.000005 30.668903
v -8.898066 -0.000005 31.156872
v -6.911617 -0.000005 31.507126
v -4.905578 -0.000005 31.717964
v -2.889848 -0.000005 31.788349
v 2.889850 -0.000005 31.788349
v 3.898470 -0.000005 31.770765
v 5.910645 -0.000005 31.630032
v 7.908102 -0.000005 31.349300
v -31.770765 -0.000001 3.898473
v -31.630032 -0.000001 5.910647
v -31.349300 -0.000001 7.908105
v -30.929918 -0.000002 9.881115
v -30.373928 -0.000002 11.820060
v -29.684038 -0.000002 13.715502
v -28.863609 -0.000003 15.558203
v -27.916634 -0.000003 17.339184
v -28.405764 0.000003 -16.456772
v -29.289991 0.000002 -14.643823
v -30.045597 0.000002 -12.773608
v -30.668905 0.000002 -10.855240
v -31.156872 0.000001 -8.898066
v -31.507126 0.000001 -6.911620
v -31.717964 0.000001 -4.905580
v -3.898473 0.000005 -31.770765
v -5.910647 0.000005 -31.630032
v -7.908105 0.000005 -31.349300
v -9.881113 0.000005 -30.929918
v -11.820060 0.000005 -30.373932
v -13.715502 0.000005 -29.684038
v -15.558200 0.000005 -28.863609
v -17.339180 0.000005 -27.916637
v -19.049765 0.000004 -26.847736
v -20.681622 0.000004 -25.662115
v -22.226795 0.000004 -24.365551
v -23.677761 0.000004 -22.964359
v -25.027451 0.000003 -21.465366
v -26.269293 0.000003 -19.875872
v -27.397228 0.000003 -18.203629
v 19.875872 0.000004 -26.269291
v 18.203629 0.000004 -27.397224
v 16.456774 0.000005 -28.405762
v 14.643826 0.000005 -29.289989
v 12.773608 0.000005 -30.045597
v 10.855242 0.000005 -30.668907
v 8.898067 0.000005 -31.156872
v 6.911620 0.000005 -31.507128
v 4.905582 0.000005 -31.717966
v 29.684036 0.000002 -13.715500
v 28.863609 0.000003 -15.558197
v 27.916637 0.000003 -17.339180
v 26.847736 0.000003 -19.049763
v 25.662115 0.000003 -20.681622
v 24.365551 0.000004 -22.226795
vt 0.497539 0.022571
vt 0.497539 0.022564
vt 0.495078 0.876500
vt 0.497539 0.022725
vt 0.497539 0.022722
vt 0.497539 0.022597
vt 0.497539 0.022619
vt 0.497539 0.022489
vt 0.497539 0.022489
vt 0.497539 0.022519
vt 0.497539 0.022514
vt 0.497539 0.022720
vt 0.497539 0.022717
vt 0.497539 0.022713
vt 0.497539 0.022709
vt 0.497539 0.022705
vt 0.497539 0.022700
vt 0.497539 0.022695
vt 0.497539 0.022689
vt 0.497539 0.022683
vt 0.497539 0.022677
vt 0.497539 0.022670
vt 0.497539 0.022663
vt 0.497539 0.022656
vt 0.497539 0.022649
vt 0.497539 0.022642
vt 0.497539 0.022634
vt 0.497539 0.022627
vt 0.497539 0.022619
vt 0.497539 0.022597
vt 0.497539 0.022593
vt 0.497539 0.022586
vt 0.497539 0.022578
vt 0.497539 0.022680
vt 0.497539 0.022686
vt 0.497539 0.022692
vt 0.497539 0.022697
vt 0.497539 0.022702
vt 0.497539 0.022707
vt 0.497539 0.022711
vt 0.497539 0.022715
vt 0.497539 0.022718
vt 0.497539 0.022721
vt 0.497539 0.022724
vt 0.497539 0.022725
vt 0.497539 0.022727
vt 0.497539 0.022727
vt 0.497539 0.022728
vt 0.497539 0.022728
vt 0.497539 0.022728
vt 0.497539 0.022727
vt 0.497539 0.022726
vt 0.497539 0.022623
vt 0.497539 0.022630
vt 0.497539 0.022638
vt 0.497539 0.022645
vt 0.497539 0.022653
vt 0.497539 0.022660
vt 0.497539 0.022667
vt 0.497539 0.022673
vt 0.497539 0.022546
vt 0.497539 0.022553
vt 0.497539 0.022560
vt 0.497539 0.022567
vt 0.497539 0.022575
vt 0.497539 0.022582
vt 0.497539 0.022590
vt 0.497539 0.022489
vt 0.497539 0.022489
vt 0.497539 0.022490
vt 0.497539 0.022492
vt 0.497539 0.022494
vt 0.497539 0.022496
vt 0.497539 0.022500
vt 0.497539 0.022503
vt 0.497539 0.022507
vt 0.497539 0.022512
vt 0.497539 0.022516
vt 0.497539 0.022522
vt 0.497539 0.022527
vt 0.497539 0.022533
vt 0.497539 0.022540
vt 0.497539 0.022509
vt 0.497539 0.022505
vt 0.497539 0.022501
vt 0.497539 0.022498
vt 0.497539 0.022495
vt 0.497539 0.022493
vt 0.497539 0.022491
vt 0.497539 0.022490
vt 0.497539 0.022489
vt 0.497539 0.022557
vt 0.497539 0.022550
vt 0.497539 0.022543
vt 0.497539 0.022536
vt 0.497539 0.022530
vt 0.497539 0.022525
vn -0.0000 1.0000 0.0000
usemtl Default_OBJ.001
s 1
f 1/1/1 2/2/1 3/3/1
f 4/4/1 5/5/1 3/3/1
f 6/6/1 7/7/1 3/3/1
f 8/8/1 9/9/1 3/3/1
f 10/10/1 11/11/1 3/3/1
f 3/3/1 5/5/1 12/12/1
f 12/12/1 13/13/1 3/3/1
f 13/13/1 14/14/1 3/3/1
f 14/14/1 15/15/1 3/3/1
f 15/15/1 16/16/1 3/3/1
f 16/16/1 17/17/1 3/3/1
f 17/17/1 18/18/1 3/3/1
f 18/18/1 19/19/1 3/3/1
f 19/19/1 20/20/1 3/3/1
f 20/20/1 21/21/1 3/3/1
f 21/21/1 22/22/1 3/3/1
f 22/22/1 23/23/1 3/3/1
f 23/23/1 24/24/1 3/3/1
f 24/24/1 25/25/1 3/3/1
f 25/25/1 26/26/1 3/3/1
f 26/26/1 27/27/1 3/3/1
f 27/27/1 28/28/1 3/3/1
f 28/28/1 29/29/1 3/3/1
f 29/29/1 30/30/1 3/3/1
f 30/30/1 31/31/1 3/3/1
f 31/31/1 32/32/1 3/3/1
f 32/32/1 33/33/1 3/3/1
f 33/33/1 1/1/1 3/3/1
f 3/3/1 34/34/1 35/35/1
f 35/35/1 36/36/1 3/3/1
f 36/36/1 37/37/1 3/3/1
f 37/37/1 38/38/1 3/3/1
f 38/38/1 39/39/1 3/3/1
f 39/39/1 40/40/1 3/3/1
f 40/40/1 41/41/1 3/3/1
f 41/41/1 42/42/1 3/3/1
f 42/42/1 43/43/1 3/3/1
f 43/43/1 44/44/1 3/3/1
f 44/44/1 45/45/1 3/3/1
f 45/45/1 46/46/1 3/3/1
f 46/46/1 47/47/1 3/3/1
f 47/47/1 48/48/1 3/3/1
f 48/48/1 49/49/1 3/3/1
f 49/49/1 50/50/1 3/3/1
f 50/50/1 51/51/1 3/3/1
f 51/51/1 52/52/1 3/3/1
f 52/52/1 4/4/1 3/3/1
f 7/7/1 53/53/1 3/3/1
f 53/53/1 54/54/1 3/3/1
f 54/54/1 55/55/1 3/3/1
f 55/55/1 56/56/1 3/3/1
f 56/56/1 57/57/1 3/3/1
f 57/57/1 58/58/1 3/3/1
f 58/58/1 59/59/1 3/3/1
f 59/59/1 60/60/1 3/3/1
f 60/60/1 34/34/1 3/3/1
f 3/3/1 61/61/1 62/62/1
f 62/62/1 63/63/1 3/3/1
f 63/63/1 64/64/1 3/3/1
f 64/64/1 65/65/1 3/3/1
f 65/65/1 66/66/1 3/3/1
f 66/66/1 67/67/1 3/3/1
f 67/67/1 6/6/1 3/3/1
f 9/9/1 68/68/1 3/3/1
f 68/68/1 69/69/1 3/3/1
f 69/69/1 70/70/1 3/3/1
f 70/70/1 71/71/1 3/3/1
f 71/71/1 72/72/1 3/3/1
f 72/72/1 73/73/1 3/3/1
f 73/73/1 74/74/1 3/3/1
f 74/74/1 75/75/1 3/3/1
f 75/75/1 76/76/1 3/3/1
f 76/76/1 77/77/1 3/3/1
f 77/77/1 78/78/1 3/3/1
f 78/78/1 79/79/1 3/3/1
f 79/79/1 80/80/1 3/3/1
f 80/80/1 81/81/1 3/3/1
f 81/81/1 82/82/1 3/3/1
f 82/82/1 61/61/1 3/3/1
f 3/3/1 11/11/1 83/83/1
f 83/83/1 84/84/1 3/3/1
f 84/84/1 85/85/1 3/3/1
f 85/85/1 86/86/1 3/3/1
f 86/86/1 87/87/1 3/3/1
f 87/87/1 88/88/1 3/3/1
f 88/88/1 89/89/1 3/3/1
f 89/89/1 90/90/1 3/3/1
f 90/90/1 91/91/1 3/3/1
f 91/91/1 8/8/1 3/3/1
f 3/3/1 2/2/1 92/92/1
f 92/92/1 93/93/1 3/3/1
f 93/93/1 94/94/1 3/3/1
f 94/94/1 95/95/1 3/3/1
f 95/95/1 96/96/1 3/3/1
f 96/96/1 97/97/1 3/3/1
f 97/97/1 10/10/1 3/3/1
