# Blender v2.82 (sub 7) OBJ File: ''
# www.blender.org
mtllib small_front5.mtl
o aforward_Circle.002
v 0.991461 0.000006 -18.495037
v -0.991461 0.000006 -18.495041
v 0.000000 0.000000 -0.000010
v -4.374152 0.000006 -18.161873
v -7.626847 0.000006 -17.175179
v -10.624549 0.000006 -15.572874
v -12.228186 0.000004 -14.256804
v 12.228185 0.000004 -14.256804
v 10.624529 0.000006 -15.572885
v 7.626823 0.000006 -17.175186
v 4.374125 0.000006 -18.161877
v 0.991461 0.040004 -12.715340
v -0.991461 0.040004 -12.715341
v 0.000000 0.040000 -0.000010
v -3.246588 0.040004 -12.493230
v -5.415052 0.040004 -11.835433
v -7.413519 0.040004 -10.767230
v -8.482610 0.040004 -9.889851
v 8.482608 0.040004 -9.889851
v 7.413507 0.040004 -10.767238
v 5.415037 0.040004 -11.835439
v 3.246570 0.040004 -12.493231
v -3.203257 0.080002 -6.495686
v -4.202490 0.080002 -5.961585
v 0.000000 0.080000 -0.000010
v -4.737033 0.080002 -5.522897
v 4.737031 0.080002 -5.522899
v 4.202483 0.080002 -5.961589
v 3.203248 0.080002 -6.495690
v 2.119015 0.080002 -6.824586
v 0.991460 0.080002 -6.935640
v -0.991461 0.080002 -6.935640
v -2.119025 0.080002 -6.824584
v 0.000000 0.000000 -0.000020
v 1.982922 0.080008 -25.430679
v -1.982922 0.080008 -25.430681
v 0.000000 0.080000 -0.000020
v -6.493176 0.080008 -24.986460
v -10.830104 0.080008 -23.670866
v -14.827038 0.080008 -21.534460
v -16.965219 0.080007 -19.779701
v 16.965216 0.080007 -19.779701
v 14.827014 0.080008 -21.534475
v 10.830074 0.080008 -23.670877
v 6.493140 0.080008 -24.986462
v 0.000000 0.160000 -0.000020
v 0.000000 0.000000 -0.000025
v 2.478652 0.100010 -31.788349
v -2.478652 0.100010 -31.788351
v 0.000000 0.100000 -0.000025
v -8.116470 0.100010 -31.233074
v -13.537630 0.100010 -29.588583
v -18.533798 0.100009 -26.918076
v -21.206524 0.100009 -24.724627
v 21.206520 0.100009 -24.724627
v 18.533768 0.100009 -26.918095
v 13.537593 0.100010 -29.588596
v 8.116426 0.100010 -31.233078
v 0.000000 0.200000 -0.000025
vt 0.469722 0.010435
vt 0.469731 0.010435
vt 0.470377 0.861033
vt 0.469748 0.010430
vt 0.469764 0.010418
vt 0.469779 0.010399
vt 0.469787 0.010384
vt 0.469665 0.010393
vt 0.469673 0.010407
vt 0.469688 0.010424
vt 0.469705 0.010433
vt 0.469697 0.010434
vt 0.469749 0.010434
vt 0.470372 0.860636
vt 0.469807 0.010430
vt 0.469864 0.010420
vt 0.469915 0.010403
vt 0.469943 0.010390
vt 0.469501 0.010392
vt 0.469529 0.010405
vt 0.469581 0.010421
vt 0.469638 0.010431
vt 0.469799 0.010420
vt 0.469826 0.010405
vt 0.470369 0.860751
vt 0.469840 0.010393
vt 0.469593 0.010390
vt 0.469607 0.010402
vt 0.469633 0.010418
vt 0.469661 0.010427
vt 0.469690 0.010431
vt 0.469742 0.010431
vt 0.469771 0.010429
vt 0.469697 0.010434
vt 0.469749 0.010434
vt 0.470372 0.860636
vt 0.469807 0.010430
vt 0.469864 0.010420
vt 0.469915 0.010403
vt 0.469943 0.010390
vt 0.469501 0.010392
vt 0.469529 0.010405
vt 0.469581 0.010421
vt 0.469638 0.010431
vt 0.469697 0.010434
vt 0.469749 0.010434
vt 0.470372 0.860636
vt 0.469807 0.010430
vt 0.469864 0.010420
vt 0.469915 0.010403
vt 0.469943 0.010390
vt 0.469501 0.010392
vt 0.469529 0.010405
vt 0.469581 0.010421
vt 0.469638 0.010431
vn -0.0000 1.0000 0.0000
usemtl Default_OBJ.005
s 1
f 1/1/1 2/2/1 3/3/1
f 2/2/1 4/4/1 3/3/1
f 4/4/1 5/5/1 3/3/1
f 5/5/1 6/6/1 3/3/1
f 6/6/1 7/7/1 3/3/1
f 3/3/1 8/8/1 9/9/1
f 9/9/1 10/10/1 3/3/1
f 10/10/1 11/11/1 3/3/1
f 11/11/1 1/1/1 3/3/1
f 12/12/1 13/13/1 14/14/1
f 13/13/1 15/15/1 14/14/1
f 15/15/1 16/16/1 14/14/1
f 16/16/1 17/17/1 14/14/1
f 17/17/1 18/18/1 14/14/1
f 14/14/1 19/19/1 20/20/1
f 20/20/1 21/21/1 14/14/1
f 21/21/1 22/22/1 14/14/1
f 22/22/1 12/12/1 14/14/1
f 23/23/1 24/24/1 25/25/1
f 24/24/1 26/26/1 25/25/1
f 25/25/1 27/27/1 28/28/1
f 28/28/1 29/29/1 25/25/1
f 29/29/1 30/30/1 25/25/1
f 30/30/1 31/31/1 25/25/1
f 31/31/1 32/32/1 25/25/1
f 32/32/1 33/33/1 25/25/1
f 33/33/1 23/23/1 25/25/1
usemtl Default_OBJ.006
f 35/34/1 36/35/1 37/36/1
f 36/35/1 38/37/1 37/36/1
f 38/37/1 39/38/1 37/36/1
f 39/38/1 40/39/1 37/36/1
f 40/39/1 41/40/1 37/36/1
f 37/36/1 42/41/1 43/42/1
f 43/42/1 44/43/1 37/36/1
f 44/43/1 45/44/1 37/36/1
f 45/44/1 35/34/1 37/36/1
usemtl Default_OBJ.007
f 48/45/1 49/46/1 50/47/1
f 49/46/1 51/48/1 50/47/1
f 51/48/1 52/49/1 50/47/1
f 52/49/1 53/50/1 50/47/1
f 53/50/1 54/51/1 50/47/1
f 50/47/1 55/52/1 56/53/1
f 56/53/1 57/54/1 50/47/1
f 57/54/1 58/55/1 50/47/1
f 58/55/1 48/45/1 50/47/1
o bullseye.002_Plane.003
v 0.417953 -0.040000 -1.063926
v -0.417953 -0.039982 -31.774181
v -0.417953 -0.040000 -1.063926
v 0.417953 -0.039982 -31.774181
vt 0.009968 0.982761
vt 0.020519 0.972210
vt 0.020519 0.982761
vt 0.009968 0.972210
vn 0.0000 1.0000 0.0000
usemtl Default_OBJ.006
s 1
f 60/56/2 61/57/2 62/58/2
f 60/56/2 63/59/2 61/57/2
