# Blender v2.78 (sub 0) OBJ File: ''
# www.blender.org
mtllib ArcCheckRuler1Half.mtl
o Extention_Cube.002
v 0.000000 0.010000 0.020000
v 0.000000 0.030000 -0.011456
v 0.000000 0.010000 -0.020000
v 5.000000 0.010000 -0.020000
v 5.000000 0.030000 -0.008774
v 5.000000 0.010000 0.020000
v 0.000000 0.030000 0.013643
v 5.000000 0.030000 0.010358
vt 0.3750 0.0000
vt 0.6250 0.2500
vt 0.3750 0.2500
vt 0.3750 0.5000
vt 0.6250 0.5000
vt 0.3750 0.7500
vt 0.6250 1.0000
vt 0.3750 1.0000
vt 0.1250 0.7500
vt 0.1250 0.5000
vt 0.8750 0.5000
vt 0.6250 0.7500
vt 0.6250 0.0000
vt 0.8750 0.7500
vn -1.0000 0.0000 0.0000
vn 0.0000 0.3929 -0.9196
vn 1.0000 -0.0000 0.0000
vn 0.0000 0.3029 0.9530
vn 0.0000 -1.0000 -0.0000
vn 0.0000 1.0000 0.0000
vn 0.0005 0.4895 -0.8720
vn 0.0006 0.4343 0.9008
usemtl None
s 1
f 1/1/1 2/2/1 3/3/1
f 2/2/2 4/4/2 3/3/2
f 5/5/3 6/6/3 4/4/3
f 6/6/4 7/7/4 1/8/4
f 4/4/5 1/9/5 3/10/5
f 2/11/6 8/12/6 5/5/6
f 1/1/1 7/13/1 2/2/1
f 2/2/7 5/5/7 4/4/7
f 5/5/3 8/12/3 6/6/3
f 6/6/8 8/12/8 7/7/8
f 4/4/5 6/6/5 1/9/5
f 2/11/6 7/14/6 8/12/6
